<?xml version="1.0" encoding="utf-8"?>
<!-- Generator: Adobe Illustrator 17.0.0, SVG Export Plug-In . SVG Version: 6.00 Build 0)  -->
<!DOCTYPE svg PUBLIC "-//W3C//DTD SVG 1.1//EN" "http://www.w3.org/Graphics/SVG/1.1/DTD/svg11.dtd">
<svg version="1.1" id="Layer_1" xmlns="http://www.w3.org/2000/svg" xmlns:xlink="http://www.w3.org/1999/xlink" x="0px" y="0px"
	 width="40.51px" height="50px" viewBox="0 0 40.51 50" enable-background="new 0 0 40.51 50" xml:space="preserve">
<path d="M40.51,7.178V50H8.453C3.747,50,0,46.729,0,41.865V4.785C0,2.154,2.152,0,4.783,0H34.45v36.763H8.453
	c-3.269,0-5.582,1.753-5.582,4.944v0.16c0,3.188,2.313,5.262,5.582,5.262h29.824V7.178H40.51z M34.45,40.75H8.77
	c-0.719,0-1.354,0.398-1.354,1.036c0,0.798,0.639,1.197,1.354,1.197h25.679L34.45,40.75L34.45,40.75z"/>
</svg>
