<?xml version="1.0" encoding="utf-8"?>
<!-- Generator: Adobe Illustrator 17.0.0, SVG Export Plug-In . SVG Version: 6.00 Build 0)  -->
<!DOCTYPE svg PUBLIC "-//W3C//DTD SVG 1.1//EN" "http://www.w3.org/Graphics/SVG/1.1/DTD/svg11.dtd">
<svg version="1.1" id="Layer_1" xmlns="http://www.w3.org/2000/svg" xmlns:xlink="http://www.w3.org/1999/xlink" x="0px" y="0px"
	 width="50.672px" height="50px" viewBox="32.713 17.074 50.672 50" enable-background="new 32.713 17.074 50.672 50"
	 xml:space="preserve">
<path d="M78.441,58.746c-9.991,10.632-26.769,11.153-37.401,1.162s-11.153-26.768-1.162-37.4c1.948-2.073,4.205-3.809,6.708-5.162
	c0.86-0.464,1.92-0.326,2.631,0.342c0.711,0.669,0.916,1.718,0.506,2.605c-3.969,8.583-2.005,18.699,4.886,25.175
	s17.111,7.807,25.43,3.313c0.859-0.464,1.919-0.326,2.631,0.343c0.711,0.669,0.915,1.719,0.505,2.605
	C81.98,54.314,80.387,56.676,78.441,58.746z"/>
</svg>
